
<svg width="57px" height="100px" viewBox="0 0 57 100" version="1.1" xmlns="http://www.w3.org/2000/svg" xmlns:xlink="http://www.w3.org/1999/xlink">
    <g id="Page-1" stroke="none" stroke-width="1" fill="none" fill-rule="evenodd">
        <g id="iPhone-7" transform="translate(-166.000000, -282.000000)" fill="#C3C2C1">
            <path d="M181.736,345.108 C178.876,326.518 199.182,318.51 199.182,309.358 C199.182,304.21 195.464,302.208 191.174,302.208 C186.312,302.208 183.166,304.782 179.448,308.214 L166.006,295.916 C172.727,287.908 182.022,282.474 192.89,282.474 C209.478,282.474 222.634,289.624 222.634,307.642 C222.634,324.802 201.756,329.378 203.186,345.108 L181.736,345.108 Z M178.018,366.844 C178.018,358.55 184.024,351.972 192.318,351.972 C200.612,351.972 206.618,358.55 206.618,366.844 C206.618,375.138 200.612,381.716 192.318,381.716 C184.024,381.716 178.018,375.138 178.018,366.844 Z" id="?"></path>
        </g>
    </g>
</svg>