<svg width="57" height="94" viewBox="0 0 57 94" fill="none" xmlns="http://www.w3.org/2000/svg">
<path fill-rule="evenodd" clip-rule="evenodd" d="M15.736 63.108C12.876 44.518 33.182 36.51 33.182 27.358C33.182 22.21 29.464 20.208 25.174 20.208C20.312 20.208 17.166 22.782 13.448 26.214L0.00598145 13.916C6.72698 5.90798 16.022 0.473999 26.89 0.473999C43.478 0.473999 56.634 7.624 56.634 25.642C56.634 42.802 35.756 47.378 37.186 63.108H15.736Z" fill="#292929"/>
<path d="M27 70C20.04 70 15 75.3077 15 82C15 88.6923 20.04 94 27 94C33.96 94 39 88.6923 39 82C39 75.3077 33.96 70 27 70Z" fill="#292929"/>
</svg>
