<?xml version="1.0" standalone="no"?>
<!DOCTYPE svg PUBLIC "-//W3C//DTD SVG 20010904//EN"
 "http://www.w3.org/TR/2001/REC-SVG-20010904/DTD/svg10.dtd">
<svg version="1.0" xmlns="http://www.w3.org/2000/svg"
 width="310.000000pt" height="310.000000pt" viewBox="0 0 310.000000 310.000000"
 preserveAspectRatio="xMidYMid meet">
<metadata>
Created by potrace 1.14, written by Peter Selinger 2001-2017
</metadata>
<g transform="translate(0.000000,310.000000) scale(0.100000,-0.100000)"
fill="#000000" stroke="none">
<path d="M0 1550 l0 -1550 1550 0 1550 0 0 1550 0 1550 -1550 0 -1550 0 0
-1550z m1765 986 c285 -63 530 -250 663 -506 79 -153 106 -272 107 -465 0
-150 -2 -166 -46 -300 -18 -58 -19 -58 -13 -15 3 25 10 49 15 55 12 12 12 68
0 61 -5 -3 -11 -18 -14 -33 -14 -75 -81 -233 -98 -233 -5 0 -9 -7 -9 -15 0 -8
-11 -25 -24 -38 -14 -14 -23 -27 -20 -29 2 -3 -5 -13 -16 -23 -11 -10 -20 -24
-20 -32 0 -7 -4 -13 -10 -13 -5 0 -29 -19 -52 -41 -24 -23 -63 -58 -88 -78
-25 -20 -51 -41 -58 -48 -27 -25 -209 -106 -291 -129 -123 -35 -337 -36 -466
-4 -102 26 -200 70 -295 131 -88 58 -260 231 -289 291 -13 27 -27 50 -32 54
-10 6 -59 109 -59 124 0 6 -4 18 -9 28 -16 31 -34 106 -42 177 -6 59 -7 54 -3
-30 3 -55 9 -104 14 -109 6 -6 10 -20 10 -33 0 -13 5 -23 11 -23 6 0 8 -7 5
-15 -6 -16 -4 -21 28 -82 9 -17 16 -37 16 -45 0 -12 -34 53 -50 97 -4 11 -13
34 -20 50 -23 57 -33 131 -37 280 -6 209 22 336 109 495 158 289 413 463 753
514 57 8 260 -3 330 -18z m698 -1351 c-7 -21 -13 -19 -13 6 0 11 4 18 10 14 5
-3 7 -12 3 -20z m-13 -28 c0 -19 -111 -200 -129 -212 -15 -9 -14 1 2 17 21 22
77 114 77 126 0 7 4 12 9 12 5 0 12 14 16 30 4 17 11 30 16 30 5 0 9 -2 9 -3z
m-1750 -67 c0 -5 -2 -10 -4 -10 -3 0 -8 5 -11 10 -3 6 -1 10 4 10 6 0 11 -4
11 -10z m49 -85 c6 -3 11 -11 11 -17 0 -6 -9 1 -20 15 -11 14 -20 31 -19 39 0
7 4 3 9 -8 5 -12 13 -25 19 -29z m35 -51 c3 -8 2 -12 -4 -9 -6 3 -10 10 -10
16 0 14 7 11 14 -7z m1497 -57 c-13 -12 -20 -15 -15 -7 12 22 28 39 33 34 3
-3 -6 -15 -18 -27z m-1406 -46 c-6 -5 -25 10 -25 20 0 5 6 4 14 -3 8 -7 12
-15 11 -17z m272 -177 c-3 -3 -12 -4 -19 -1 -8 3 -5 6 6 6 11 1 17 -2 13 -5z
m760 -30 c-3 -3 -12 -4 -19 -1 -8 3 -5 6 6 6 11 1 17 -2 13 -5z m-630 -20 c-3
-3 -12 -4 -19 -1 -8 3 -5 6 6 6 11 1 17 -2 13 -5z m576 -1 c-7 -2 -19 -2 -25
0 -7 3 -2 5 12 5 14 0 19 -2 13 -5z m-425 -30 c-10 -2 -28 -2 -40 0 -13 2 -5
4 17 4 22 1 32 -1 23 -4z m295 0 c-13 -2 -33 -2 -45 0 -13 2 -3 4 22 4 25 0
35 -2 23 -4z"/>
<path d="M1465 2449 c-11 -4 -39 -8 -62 -8 -23 -1 -44 -5 -47 -10 -4 -5 -25
-12 -49 -16 -41 -6 -76 -18 -107 -36 -8 -5 -25 -13 -37 -18 -26 -12 -37 -28
-23 -36 11 -7 -11 -35 -28 -35 -4 0 -19 -11 -32 -25 -13 -14 -29 -25 -35 -25
-17 0 -68 -57 -61 -68 10 -17 44 -20 70 -6 25 12 26 11 26 -12 0 -15 6 -24 16
-24 12 0 15 6 10 25 -9 35 26 34 52 -2 19 -27 21 -27 39 -10 11 9 35 17 56 17
20 0 37 5 37 10 0 6 5 10 10 10 6 0 10 -7 10 -15 0 -8 7 -15 15 -15 8 0 15 7
15 16 0 12 4 14 13 7 6 -6 20 -13 29 -16 13 -4 16 -2 11 11 -5 14 -3 15 8 5 7
-7 22 -13 34 -14 20 0 20 0 0 -9 -18 -8 -17 -9 8 -9 21 -1 27 4 27 21 0 19 1
20 18 6 19 -18 139 -31 122 -14 -14 14 -12 26 5 26 8 0 15 -9 15 -20 0 -21 33
-29 45 -10 10 15 35 12 35 -5 0 -8 5 -15 10 -15 14 0 12 27 -2 33 -10 4 -10 8
2 16 10 7 18 5 28 -10 10 -14 20 -17 40 -13 15 4 31 10 36 15 5 5 15 4 22 -2
7 -6 42 -12 78 -12 57 -2 67 1 86 23 22 24 22 24 16 3 -7 -20 -4 -23 22 -23
17 0 33 6 36 13 5 10 7 10 12 0 6 -14 34 -18 34 -5 0 4 -20 28 -45 52 -26 26
-43 50 -40 58 4 10 0 12 -11 8 -25 -10 -64 4 -62 23 3 33 -2 51 -14 51 -7 0
-26 7 -43 16 -16 8 -39 13 -52 9 -14 -3 -26 1 -35 12 -7 10 -24 19 -38 21 -13
1 -27 7 -31 13 -5 8 -9 8 -13 0 -5 -8 -16 -5 -35 9 -16 10 -31 17 -34 14 -10
-10 -67 -13 -67 -3 0 13 -70 9 -87 -4 -8 -6 -18 -6 -25 1 -8 5 -22 6 -33 1z
m55 -273 c0 -3 -4 -8 -10 -11 -5 -3 -10 -1 -10 4 0 6 5 11 10 11 6 0 10 -2 10
-4z"/>
<path d="M2141 2236 c-15 -18 -10 -29 12 -24 9 2 12 9 8 21 -6 17 -8 18 -20 3z"/>
<path d="M1460 2124 c-83 -15 -135 -36 -149 -61 -6 -11 -3 -31 10 -61 11 -24
19 -50 19 -57 0 -25 18 -26 56 -3 28 16 54 22 97 23 74 0 97 -22 97 -94 0 -42
-7 -57 -68 -143 -75 -105 -95 -157 -90 -233 l3 -50 55 -3 c30 -1 69 0 86 3 30
5 32 8 36 59 4 51 34 124 63 153 39 38 103 133 118 173 38 102 8 195 -84 261
-19 13 -174 56 -174 48 0 -1 -34 -8 -75 -15z"/>
<path d="M1340 2120 c0 -5 4 -10 9 -10 6 0 13 5 16 10 3 6 -1 10 -9 10 -9 0
-16 -4 -16 -10z"/>
<path d="M2502 1410 c0 -19 2 -27 5 -17 2 9 2 25 0 35 -3 9 -5 1 -5 -18z"/>
<path d="M1475 1398 c-73 -40 -102 -114 -71 -180 56 -118 246 -71 246 62 0 87
-104 157 -175 118z"/>
</g>
</svg>
